<?xml version="1.0" encoding="UTF-8"?>
<svg id="Layer_2" data-name="Layer 2" xmlns="http://www.w3.org/2000/svg" xmlns:xlink="http://www.w3.org/1999/xlink" viewBox="0 0 1000 425.43">
  <defs>
    <style>
      .cls-1 {
        fill: url(#ast-gradient);
      }

      .cls-1, .cls-2, .cls-3 {
        stroke-width: 0px;
      }

      .cls-2 {
        fill: url(#ast-gradient);
      }

      .cls-3 {
        fill: url(#ast-gradient);
      }
    </style>
    <linearGradient id="ast-gradient" x1="0" y1="0" x2="0" y2="425.43" gradientUnits="userSpaceOnUse">
      <stop offset="0" stop-color="#C4B5FD"/>
      <stop offset="1" stop-color="#000000"/>
    </linearGradient>
    <linearGradient id="linear-gradient" x1="55.42" y1="388.28" x2="358.33" y2="388.28" gradientTransform="translate(0 567.88) scale(1 -1)" gradientUnits="userSpaceOnUse">
      <stop offset="0" stop-color="#6666ce"/>
      <stop offset=".48" stop-color="#6862c6"/>
      <stop offset="1" stop-color="#6c5db8"/>
    </linearGradient>
    <linearGradient id="linear-gradient-2" x1="118.39" y1="380.69" x2="424.5" y2="380.69" gradientTransform="translate(0 567.88) scale(1 -1)" gradientUnits="userSpaceOnUse">
      <stop offset="0" stop-color="#6666ce"/>
      <stop offset=".48" stop-color="#6862c6"/>
      <stop offset="1" stop-color="#6c5db8"/>
    </linearGradient>
  </defs>
  <g id="LOGO_COMPILE" data-name="LOGO COMPILE">
    <g>
      <path class="cls-3" d="m368.66,358.32c-42.68,48.25-120.89,80.58-203.07,61.57C79.63,400,13.99,328.21,2.05,241.14-10.17,152.16,34.06,76.58,87.36,39.78c-36.04,43.74-53.75,93.84-50.88,150.44,2.87,56.76,25.5,104.95,66.33,144.45,64.53,62.41,175.2,82.94,265.86,23.65h0Z"/>
      <path class="cls-1" d="m358.33,48.25c-86.78-58.53-202.09-28.55-250.38,59.81-26.47,48.42-29.38,99.06-8.4,150.09,20.92,50.87,59.13,83.7,112.48,101.07-51.56-4.59-123.32-44.07-148.44-124.96-25.39-81.75,9.91-169.68,84.96-211.48C221.63-17.93,307.78-.81,358.33,48.24h0Z"/>
      <path class="cls-2" d="m417.28,142.51c-27.56-44.69-65.61-60.59-117.29-65.72-44.73-4.44-75.8,7.81-108.9,38.19-49.85,42.36-74.9,158.75-2.84,218.93-14.77-3.83-46.08-36.66-59.27-62.13-13.81-26.66-19.67-55.07-17.3-84.91,6.22-78.16,67.32-139.8,145.07-145.88,83.65-6.53,142.1,49.18,160.53,101.51h0Z"/>
    </g>
    <g>
      <path class="cls-3" d="m608.01,225.76c-19.2-15.4-43.56-24.64-70.09-24.64-61.93,0-112.15,50.22-112.15,112.15s50.22,112.15,112.15,112.15c26.53,0,50.89-9.24,70.09-24.64v24.64h42.06v-224.3h-42.06v24.64h0Zm-70.09,157.61c-38.71,0-70.09-31.39-70.09-70.09s31.39-70.09,70.09-70.09,70.09,31.39,70.09,70.09-31.39,70.09-70.09,70.09Z"/>
      <polygon class="cls-3" points="1000 201.13 940 201.13 940 74.96 897.94 74.96 897.94 201.13 855.88 201.13 855.88 243.18 897.94 243.18 897.94 425.42 940 425.42 940 243.18 1000 243.18 1000 201.13"/>
      <path class="cls-3" d="m804.19,306.98c-12.42-3.4-23.02-6.34-35.43-8.7-12.42-2.35-24.77-5.94-33.4-10.91-8.63-4.96-12.94-11.82-12.94-20.59s3.4-15.82,10.2-21.18c6.79-5.35,16.21-8.04,28.23-8.04s21.37,3.01,28.04,9.02c6.67,6.02,10.39,14.38,11.18,25.1h45.89c-1.05-21.44-8.96-38.37-23.73-50.78-14.78-12.41-34.7-18.63-59.81-18.63s-45.36,6.34-60.79,19.02c-15.43,12.68-23.14,28.18-23.14,46.47,0,14.38,4.31,25.88,12.94,34.51,8.63,8.62,19.15,14.58,31.57,17.84,12.41,3.28,24.84,6.15,37.26,8.63,12.41,2.49,22.94,6.22,31.57,11.18,8.63,4.97,12.94,11.9,12.94,20.78s-3.6,16.02-10.78,21.37c-7.19,5.36-16.86,8.04-29.02,8.04s-21.77-3-28.82-9.02c-7.06-6.01-10.98-14.38-11.77-25.1h-46.27c1.57,22.23,10.06,39.35,25.49,51.37,15.42,12.03,35.55,18.04,60.4,18.04s45.16-5.89,60.99-17.65c15.82-11.77,23.72-27.06,23.72-45.89,0-15.16-4.31-27.26-12.94-36.27-8.63-9.02-19.15-15.23-31.57-18.63h.01Z"/>
    </g>
  </g>
</svg>