<svg xmlns="http://www.w3.org/2000/svg" xmlns:xlink="http://www.w3.org/1999/xlink" width="1000" zoomAndPan="magnify" viewBox="0 0 750 318.749988" height="425" preserveAspectRatio="xMidYMid meet" version="1.0"><defs><clipPath id="9864eb8d62"><path d="M 0.292969 29 L 277 29 L 277 318.5 L 0.292969 318.5 Z M 0.292969 29 " clip-rule="nonzero"/></clipPath><clipPath id="4b332ae302"><path d="M 41 0 L 269 0 L 269 270 L 41 270 Z M 41 0 " clip-rule="nonzero"/></clipPath><clipPath id="1dfa4caecf"><path d="M 268.832031 36.023438 C 203.796875 -7.875 117.382812 14.609375 81.191406 80.882812 C 61.355469 117.199219 59.175781 155.179688 74.898438 193.453125 C 90.574219 231.605469 119.210938 256.226562 159.191406 269.257812 C 120.550781 265.8125 66.773438 236.203125 47.949219 175.535156 C 28.921875 114.21875 55.375 48.269531 111.617188 16.921875 C 166.386719 -13.613281 230.949219 -0.773438 268.832031 36.015625 Z M 268.832031 36.023438 " clip-rule="nonzero"/></clipPath><linearGradient x1="38.19998" gradientTransform="matrix(0.749412, 0, 0, -0.750016, 0.293902, 425.754373)" y1="388.28" x2="358.329975" gradientUnits="userSpaceOnUse" y2="388.28" id="30a918d301"><stop stop-opacity="1" stop-color="rgb(39.99939%, 39.99939%, 80.778503%)" offset="0"/><stop stop-opacity="1" stop-color="rgb(40.007019%, 39.984131%, 80.747986%)" offset="0.0625"/><stop stop-opacity="1" stop-color="rgb(40.040588%, 39.91394%, 80.610657%)" offset="0.09375"/><stop stop-opacity="1" stop-color="rgb(40.093994%, 39.807129%, 80.395508%)" offset="0.125"/><stop stop-opacity="1" stop-color="rgb(40.1474%, 39.698792%, 80.180359%)" offset="0.15625"/><stop stop-opacity="1" stop-color="rgb(40.200806%, 39.590454%, 79.96521%)" offset="0.1875"/><stop stop-opacity="1" stop-color="rgb(40.255737%, 39.482117%, 79.750061%)" offset="0.21875"/><stop stop-opacity="1" stop-color="rgb(40.309143%, 39.373779%, 79.533386%)" offset="0.25"/><stop stop-opacity="1" stop-color="rgb(40.362549%, 39.266968%, 79.318237%)" offset="0.28125"/><stop stop-opacity="1" stop-color="rgb(40.415955%, 39.15863%, 79.103088%)" offset="0.3125"/><stop stop-opacity="1" stop-color="rgb(40.46936%, 39.050293%, 78.887939%)" offset="0.34375"/><stop stop-opacity="1" stop-color="rgb(40.522766%, 38.941956%, 78.672791%)" offset="0.375"/><stop stop-opacity="1" stop-color="rgb(40.577698%, 38.833618%, 78.457642%)" offset="0.40625"/><stop stop-opacity="1" stop-color="rgb(40.631104%, 38.726807%, 78.242493%)" offset="0.4375"/><stop stop-opacity="1" stop-color="rgb(40.684509%, 38.618469%, 78.025818%)" offset="0.46875"/><stop stop-opacity="1" stop-color="rgb(40.737915%, 38.510132%, 77.810669%)" offset="0.5"/><stop stop-opacity="1" stop-color="rgb(40.809631%, 38.395691%, 77.546692%)" offset="0.53125"/><stop stop-opacity="1" stop-color="rgb(40.90271%, 38.273621%, 77.21405%)" offset="0.5625"/><stop stop-opacity="1" stop-color="rgb(41.001892%, 38.150024%, 76.86615%)" offset="0.59375"/><stop stop-opacity="1" stop-color="rgb(41.1026%, 38.024902%, 76.516724%)" offset="0.625"/><stop stop-opacity="1" stop-color="rgb(41.201782%, 37.89978%, 76.168823%)" offset="0.65625"/><stop stop-opacity="1" stop-color="rgb(41.30249%, 37.776184%, 75.819397%)" offset="0.6875"/><stop stop-opacity="1" stop-color="rgb(41.401672%, 37.651062%, 75.471497%)" offset="0.71875"/><stop stop-opacity="1" stop-color="rgb(41.500854%, 37.527466%, 75.12207%)" offset="0.75"/><stop stop-opacity="1" stop-color="rgb(41.601562%, 37.402344%, 74.77417%)" offset="0.78125"/><stop stop-opacity="1" stop-color="rgb(41.700745%, 37.278748%, 74.424744%)" offset="0.8125"/><stop stop-opacity="1" stop-color="rgb(41.799927%, 37.153625%, 74.076843%)" offset="0.84375"/><stop stop-opacity="1" stop-color="rgb(41.900635%, 37.028503%, 73.727417%)" offset="0.875"/><stop stop-opacity="1" stop-color="rgb(41.999817%, 36.904907%, 73.379517%)" offset="0.90625"/><stop stop-opacity="1" stop-color="rgb(42.098999%, 36.779785%, 73.03009%)" offset="0.9375"/><stop stop-opacity="1" stop-color="rgb(42.199707%, 36.656189%, 72.68219%)" offset="0.96875"/><stop stop-opacity="1" stop-color="rgb(42.298889%, 36.531067%, 72.332764%)" offset="1"/></linearGradient><clipPath id="3bcc80f396"><path d="M 83 30 L 314 30 L 314 251 L 83 251 Z M 83 30 " clip-rule="nonzero"/></clipPath><clipPath id="5ea99ec46d"><path d="M 313.007812 106.71875 C 292.355469 73.203125 263.839844 61.277344 225.109375 57.429688 C 191.589844 54.097656 168.304688 63.285156 143.5 86.070312 C 106.140625 117.84375 87.367188 205.136719 141.371094 250.273438 C 130.300781 247.402344 106.835938 222.777344 96.953125 203.675781 C 86.605469 183.679688 82.210938 162.371094 83.988281 139.992188 C 88.648438 81.371094 134.4375 35.136719 192.707031 30.578125 C 255.394531 25.679688 299.195312 67.464844 313.007812 106.710938 Z M 313.007812 106.71875 " clip-rule="nonzero"/></clipPath><linearGradient x1="109.309993" gradientTransform="matrix(0.749412, 0, 0, -0.750016, 0.293902, 425.754373)" y1="380.69" x2="417.279983" gradientUnits="userSpaceOnUse" y2="380.69" id="c7bacd0b2c"><stop stop-opacity="1" stop-color="rgb(39.99939%, 39.99939%, 80.778503%)" offset="0"/><stop stop-opacity="1" stop-color="rgb(40.02533%, 39.944458%, 80.670166%)" offset="0.0625"/><stop stop-opacity="1" stop-color="rgb(40.078735%, 39.839172%, 80.459595%)" offset="0.09375"/><stop stop-opacity="1" stop-color="rgb(40.129089%, 39.735413%, 80.255127%)" offset="0.125"/><stop stop-opacity="1" stop-color="rgb(40.180969%, 39.633179%, 80.049133%)" offset="0.15625"/><stop stop-opacity="1" stop-color="rgb(40.231323%, 39.530945%, 79.844666%)" offset="0.1875"/><stop stop-opacity="1" stop-color="rgb(40.283203%, 39.427185%, 79.640198%)" offset="0.21875"/><stop stop-opacity="1" stop-color="rgb(40.333557%, 39.324951%, 79.434204%)" offset="0.25"/><stop stop-opacity="1" stop-color="rgb(40.385437%, 39.221191%, 79.229736%)" offset="0.28125"/><stop stop-opacity="1" stop-color="rgb(40.435791%, 39.118958%, 79.025269%)" offset="0.3125"/><stop stop-opacity="1" stop-color="rgb(40.487671%, 39.016724%, 78.819275%)" offset="0.34375"/><stop stop-opacity="1" stop-color="rgb(40.538025%, 38.912964%, 78.614807%)" offset="0.375"/><stop stop-opacity="1" stop-color="rgb(40.589905%, 38.81073%, 78.410339%)" offset="0.40625"/><stop stop-opacity="1" stop-color="rgb(40.640259%, 38.70697%, 78.204346%)" offset="0.4375"/><stop stop-opacity="1" stop-color="rgb(40.692139%, 38.604736%, 77.999878%)" offset="0.46875"/><stop stop-opacity="1" stop-color="rgb(40.742493%, 38.502502%, 77.79541%)" offset="0.5"/><stop stop-opacity="1" stop-color="rgb(40.811157%, 38.392639%, 77.540588%)" offset="0.53125"/><stop stop-opacity="1" stop-color="rgb(40.901184%, 38.276672%, 77.22168%)" offset="0.5625"/><stop stop-opacity="1" stop-color="rgb(40.995789%, 38.157654%, 76.889038%)" offset="0.59375"/><stop stop-opacity="1" stop-color="rgb(41.091919%, 38.038635%, 76.556396%)" offset="0.625"/><stop stop-opacity="1" stop-color="rgb(41.186523%, 37.921143%, 76.225281%)" offset="0.65625"/><stop stop-opacity="1" stop-color="rgb(41.281128%, 37.802124%, 75.892639%)" offset="0.6875"/><stop stop-opacity="1" stop-color="rgb(41.375732%, 37.683105%, 75.561523%)" offset="0.71875"/><stop stop-opacity="1" stop-color="rgb(41.470337%, 37.565613%, 75.228882%)" offset="0.75"/><stop stop-opacity="1" stop-color="rgb(41.566467%, 37.446594%, 74.897766%)" offset="0.78125"/><stop stop-opacity="1" stop-color="rgb(41.661072%, 37.327576%, 74.565125%)" offset="0.8125"/><stop stop-opacity="1" stop-color="rgb(41.755676%, 37.210083%, 74.234009%)" offset="0.84375"/><stop stop-opacity="1" stop-color="rgb(41.850281%, 37.091064%, 73.901367%)" offset="0.875"/><stop stop-opacity="1" stop-color="rgb(41.944885%, 36.972046%, 73.570251%)" offset="0.90625"/><stop stop-opacity="1" stop-color="rgb(42.041016%, 36.854553%, 73.23761%)" offset="0.9375"/><stop stop-opacity="1" stop-color="rgb(42.13562%, 36.735535%, 72.906494%)" offset="0.96875"/><stop stop-opacity="1" stop-color="rgb(42.230225%, 36.616516%, 72.573853%)" offset="1"/></linearGradient><clipPath id="fc3fca5209"><path d="M 319 150 L 488 150 L 488 318.5 L 319 318.5 Z M 319 150 " clip-rule="nonzero"/></clipPath><clipPath id="40f0cbc225"><path d="M 641 56 L 749.707031 56 L 749.707031 318.5 L 641 318.5 Z M 641 56 " clip-rule="nonzero"/></clipPath><clipPath id="a09a2700e5"><path d="M 508 151 L 637 151 L 637 318.5 L 508 318.5 Z M 508 151 " clip-rule="nonzero"/></clipPath></defs><g clip-path="url(#9864eb8d62)"><path fill="#102448" d="M 276.570312 268.582031 C 244.585938 304.769531 185.976562 329.015625 124.390625 314.757812 C 59.96875 299.839844 10.777344 246 1.832031 180.695312 C -7.328125 113.957031 25.820312 57.273438 65.761719 29.671875 C 38.753906 62.476562 25.480469 100.050781 27.632812 142.503906 C 29.785156 185.074219 46.742188 221.21875 77.339844 250.84375 C 125.699219 297.652344 208.636719 313.050781 276.578125 268.582031 Z M 276.570312 268.582031 " fill-opacity="1" fill-rule="nonzero"/></g><g clip-path="url(#4b332ae302)"><g clip-path="url(#1dfa4caecf)"><path fill="url(#30a918d301)" d="M 28.921875 269.257812 L 28.921875 0 L 268.832031 0 L 268.832031 269.257812 Z M 28.921875 269.257812 " fill-rule="nonzero"/></g></g><g clip-path="url(#3bcc80f396)"><g clip-path="url(#5ea99ec46d)"><path fill="url(#c7bacd0b2c)" d="M 82.210938 250.273438 L 82.210938 25.679688 L 313.007812 25.679688 L 313.007812 250.273438 Z M 82.210938 250.273438 " fill-rule="nonzero"/></g></g><g clip-path="url(#fc3fca5209)"><path fill="#102448" d="M 455.945312 169.160156 C 441.554688 157.609375 423.300781 150.679688 403.417969 150.679688 C 357.007812 150.679688 319.371094 188.34375 319.371094 234.792969 C 319.371094 281.242188 357.007812 318.90625 403.417969 318.90625 C 423.300781 318.90625 441.554688 311.976562 455.945312 300.425781 L 455.945312 318.90625 L 487.464844 318.90625 L 487.464844 150.679688 L 455.945312 150.679688 Z M 403.417969 287.367188 C 374.40625 287.367188 350.890625 263.824219 350.890625 234.800781 C 350.890625 205.773438 374.414062 182.230469 403.417969 182.230469 C 432.421875 182.230469 455.945312 205.773438 455.945312 234.800781 C 455.945312 263.824219 432.421875 287.367188 403.417969 287.367188 Z M 403.417969 287.367188 " fill-opacity="1" fill-rule="nonzero"/></g><g clip-path="url(#40f0cbc225)"><path fill="#102448" d="M 749.707031 150.6875 L 704.742188 150.6875 L 704.742188 56.054688 L 673.222656 56.054688 L 673.222656 150.6875 L 641.699219 150.6875 L 641.699219 182.222656 L 673.222656 182.222656 L 673.222656 318.90625 L 704.742188 318.90625 L 704.742188 182.222656 L 749.707031 182.222656 Z M 749.707031 150.6875 " fill-opacity="1" fill-rule="nonzero"/></g><g clip-path="url(#a09a2700e5)"><path fill="#102448" d="M 602.964844 230.074219 C 593.65625 227.523438 585.710938 225.320312 576.410156 223.550781 C 567.105469 221.789062 557.847656 219.09375 551.382812 215.367188 C 544.914062 211.648438 541.683594 206.503906 541.683594 199.925781 C 541.683594 193.347656 544.230469 188.058594 549.328125 184.039062 C 554.417969 180.027344 561.476562 178.007812 570.484375 178.007812 C 579.492188 178.007812 586.5 180.265625 591.496094 184.773438 C 596.496094 189.289062 599.285156 195.558594 599.875 203.601562 L 634.265625 203.601562 C 633.480469 187.519531 627.550781 174.820312 616.484375 165.515625 C 605.40625 156.207031 590.476562 151.542969 571.660156 151.542969 C 552.84375 151.542969 537.667969 156.296875 526.105469 165.804688 C 514.539062 175.316406 508.761719 186.941406 508.761719 200.660156 C 508.761719 211.445312 511.992188 220.070312 518.460938 226.542969 C 524.925781 233.007812 532.8125 237.476562 542.117188 239.921875 C 551.417969 242.382812 560.734375 244.535156 570.042969 246.394531 C 579.34375 248.261719 587.234375 251.0625 593.699219 254.78125 C 600.167969 258.507812 603.398438 263.707031 603.398438 270.367188 C 603.398438 277.027344 600.699219 282.382812 595.320312 286.394531 C 589.929688 290.414062 582.683594 292.425781 573.570312 292.425781 C 564.457031 292.425781 557.257812 290.175781 551.972656 285.660156 C 546.683594 281.152344 543.746094 274.875 543.152344 266.832031 L 508.476562 266.832031 C 509.65625 283.507812 516.015625 296.347656 527.582031 305.363281 C 539.136719 314.382812 554.222656 318.890625 572.84375 318.890625 C 591.46875 318.890625 606.6875 314.472656 618.550781 305.65625 C 630.40625 296.828125 636.328125 285.359375 636.328125 271.234375 C 636.328125 259.867188 633.097656 250.789062 626.628906 244.03125 C 620.164062 237.269531 612.277344 232.609375 602.972656 230.058594 L 602.980469 230.058594 Z M 602.964844 230.074219 " fill-opacity="1" fill-rule="nonzero"/></g></svg>