<svg xmlns="http://www.w3.org/2000/svg" xmlns:xlink="http://www.w3.org/1999/xlink" width="1080" zoomAndPan="magnify" viewBox="0 0 810 809.999993" height="1080" preserveAspectRatio="xMidYMid meet" version="1.0"><defs><clipPath id="6f855b974d"><path d="M 7.65625 75 L 710 75 L 710 810 L 7.65625 810 Z M 7.65625 75 " clip-rule="nonzero"/></clipPath><clipPath id="6c2844aa62"><path d="M 113 0 L 691 0 L 691 684 L 113 684 Z M 113 0 " clip-rule="nonzero"/></clipPath><clipPath id="327536b896"><path d="M 690.011719 91.855469 C 524.773438 -19.578125 305.230469 37.492188 213.285156 205.738281 C 162.890625 297.9375 157.339844 394.355469 197.289062 491.507812 C 237.109375 588.359375 309.878906 650.867188 411.449219 683.953125 C 313.261719 675.214844 176.65625 600.050781 128.824219 446.027344 C 80.488281 290.371094 147.699219 122.96875 290.589844 43.375 C 429.738281 -34.132812 593.777344 -1.539062 690.019531 91.855469 Z M 690.011719 91.855469 " clip-rule="nonzero"/></clipPath><clipPath id="df0cf0704d"><path d="M 219 77 L 802.65625 77 L 802.65625 636 L 219 636 Z M 219 77 " clip-rule="nonzero"/></clipPath><clipPath id="9dbf5e450e"><path d="M 802.242188 271.335938 C 749.757812 186.257812 677.328125 155.96875 578.925781 146.207031 C 493.761719 137.753906 434.601562 161.078125 371.589844 218.914062 C 276.679688 299.566406 228.996094 521.175781 366.183594 635.761719 C 338.054688 628.472656 278.449219 565.964844 253.335938 517.46875 C 227.042969 466.699219 215.871094 412.621094 220.390625 355.8125 C 232.234375 206.992188 348.550781 89.632812 496.597656 78.058594 C 655.867188 65.609375 767.160156 171.703125 802.234375 271.328125 Z M 802.242188 271.335938 " clip-rule="nonzero"/></clipPath><clipPath id="e2d7e3aeab"><path d="M 302.082031 204.171875 L 304.886719 204.171875 L 304.886719 206.578125 L 302.082031 206.578125 Z M 302.082031 204.171875 " clip-rule="nonzero"/></clipPath><clipPath id="7da14937a9"><path d="M 304.875 204.976562 C 303.601562 207 302.398438 206.625 302.175781 206.25 C 301.949219 205.800781 302.175781 204.601562 302.550781 204.300781 C 302.925781 204 304.5 204.375 304.5 204.375 " clip-rule="nonzero"/></clipPath><clipPath id="ffbc07f55a"><path d="M 0.0820312 0.171875 L 2.886719 0.171875 L 2.886719 2.578125 L 0.0820312 2.578125 Z M 0.0820312 0.171875 " clip-rule="nonzero"/></clipPath><clipPath id="48532fbb29"><path d="M 2.875 0.976562 C 1.601562 3 0.398438 2.625 0.175781 2.25 C -0.0507812 1.800781 0.175781 0.601562 0.550781 0.300781 C 0.925781 0 2.5 0.375 2.5 0.375 " clip-rule="nonzero"/></clipPath><clipPath id="d08b3a6c89"><rect x="0" width="3" y="0" height="3"/></clipPath></defs><rect x="-81" width="972" fill="#ffffff" y="-80.999999" height="971.999992" fill-opacity="1"/><rect x="-81" width="972" fill="#ffffff" y="-80.999999" height="971.999992" fill-opacity="1"/><g clip-path="url(#6f855b974d)"><path fill="#ffffff" d="M 709.667969 682.238281 C 628.410156 774.105469 479.5 835.671875 323.03125 799.464844 C 159.359375 761.597656 34.382812 624.90625 11.652344 459.136719 C -11.59375 289.699219 72.613281 145.816406 174.074219 75.730469 C 105.441406 159.007812 71.738281 254.402344 77.191406 362.160156 C 82.648438 470.238281 125.730469 561.984375 203.476562 637.195312 C 326.332031 756.03125 537.042969 795.101562 709.675781 682.222656 L 709.667969 682.222656 Z M 709.667969 682.238281 " fill-opacity="1" fill-rule="nonzero"/></g><g clip-path="url(#6c2844aa62)"><g clip-path="url(#327536b896)"><path fill="#9fc7aa" d="M 80.488281 683.953125 L 80.488281 0 L 690.019531 0 L 690.019531 683.953125 Z M 80.488281 683.953125 " fill-opacity="1" fill-rule="nonzero"/></g></g><g clip-path="url(#df0cf0704d)"><g clip-path="url(#9dbf5e450e)"><path fill="#9fc7aa" d="M 215.871094 635.761719 L 215.871094 65.609375 L 802.242188 65.609375 L 802.242188 635.761719 Z M 215.871094 635.761719 " fill-opacity="1" fill-rule="nonzero"/></g></g><g clip-path="url(#e2d7e3aeab)"><g clip-path="url(#7da14937a9)"><g transform="matrix(1, 0, 0, 1, 302, 204)"><g clip-path="url(#d08b3a6c89)"><g clip-path="url(#ffbc07f55a)"><g clip-path="url(#48532fbb29)"><rect x="-480.2" width="1166.4" fill="#0571d3" height="1166.39999" y="-382.199998" fill-opacity="1"/></g></g></g></g></g></g></svg>